<svg width="34" height="28" viewBox="0 0 34 28" fill="none" xmlns="http://www.w3.org/2000/svg">
<path d="M11.2001 14.2985C11.3927 14.1541 11.6309 14.084 11.871 14.1011C12.1111 14.1181 12.337 14.2212 12.5072 14.3914C12.6774 14.5616 12.7805 14.7875 12.7976 15.0276C12.8146 15.2678 12.7445 15.506 12.6001 15.6985L10.5001 17.6985C10.2395 17.8518 10.0171 18.0622 9.84961 18.3139C9.68207 18.5655 9.57376 18.8519 9.53281 19.1514C9.49187 19.4509 9.51936 19.7558 9.61321 20.0432C9.70707 20.3306 9.86485 20.5929 10.0747 20.8105C10.2845 21.0281 10.541 21.1954 10.8248 21.2996C11.1085 21.4038 11.4122 21.4424 11.713 21.4124C12.0139 21.3823 12.304 21.2845 12.5615 21.1262C12.8191 20.9679 13.0374 20.7533 13.2001 20.4985L18.0001 15.6985C18.1833 15.5116 18.286 15.2603 18.286 14.9985C18.286 14.7368 18.1833 14.4855 18.0001 14.2985C17.8643 14.2204 17.7488 14.1115 17.6628 13.9805C17.5769 13.8496 17.5229 13.7003 17.5052 13.5447C17.4875 13.389 17.5067 13.2314 17.561 13.0845C17.6154 12.9376 17.7036 12.8056 17.8184 12.699C17.9332 12.5924 18.0714 12.5143 18.2219 12.4709C18.3724 12.4275 18.531 12.4201 18.6849 12.4492C18.8388 12.4784 18.9837 12.5433 19.1079 12.6387C19.2322 12.7341 19.3322 12.8574 19.4001 12.9985C19.9136 13.5378 20.2001 14.2539 20.2001 14.9985C20.2001 15.7432 19.9136 16.4593 19.4001 16.9985L14.6001 21.9985C13.8543 22.6403 12.8936 22.9765 11.9104 22.9397C10.9272 22.9029 9.99424 22.4958 9.29854 21.8001C8.60283 21.1044 8.19578 20.1714 8.15898 19.1883C8.12218 18.2051 8.45835 17.2443 9.1001 16.4985L11.1001 14.4985L11.2001 14.2985ZM22.8001 13.6985C22.6075 13.843 22.3693 13.9131 22.1292 13.896C21.8891 13.879 21.6632 13.7759 21.493 13.6056C21.3228 13.4354 21.2197 13.2095 21.2026 12.9694C21.1855 12.7293 21.2557 12.4911 21.4001 12.2985L23.4001 10.2985C23.6824 10.1628 23.929 9.96266 24.1198 9.7142C24.3106 9.46574 24.4404 9.17594 24.4987 8.86813C24.557 8.56032 24.5422 8.24313 24.4554 7.9421C24.3686 7.64108 24.2124 7.36464 23.9992 7.13507C23.786 6.9055 23.5219 6.72922 23.2281 6.62043C22.9344 6.51165 22.6191 6.47339 22.3078 6.50876C21.9966 6.54412 21.698 6.65212 21.4361 6.82404C21.1742 6.99596 20.9563 7.227 20.8001 7.49853L16.0001 12.2985C15.8169 12.4855 15.7142 12.7368 15.7142 12.9985C15.7142 13.2603 15.8169 13.5116 16.0001 13.6985C16.1359 13.7767 16.2514 13.8856 16.3373 14.0165C16.4233 14.1475 16.4773 14.2968 16.495 14.4524C16.5127 14.608 16.4935 14.7657 16.4391 14.9126C16.3848 15.0594 16.2966 15.1915 16.1818 15.2981C16.067 15.4047 15.9288 15.4828 15.7783 15.5262C15.6278 15.5696 15.4692 15.577 15.3153 15.5478C15.1614 15.5187 15.0165 15.4538 14.8923 15.3584C14.768 15.263 14.668 15.1397 14.6001 14.9985C14.0865 14.4593 13.8001 13.7432 13.8001 12.9985C13.8001 12.2539 14.0865 11.5378 14.6001 10.9985L19.4001 5.99853C20.1459 5.35678 21.1066 5.02062 22.0898 5.05742C23.073 5.09422 24.006 5.50127 24.7017 6.19697C25.3974 6.89268 25.8044 7.82563 25.8412 8.80881C25.878 9.792 25.5418 10.7528 24.9001 11.4985L22.9001 13.4985L22.8001 13.6985Z" fill="#222F3E"/>
</svg>
