<svg width="34" height="28" viewBox="0 0 34 28" fill="none" xmlns="http://www.w3.org/2000/svg">
<path fill-rule="evenodd" clip-rule="evenodd" d="M12 7H24C24.6 7 25 7.4 25 8C25 8.6 24.6 9 24 9H12C11.7348 9 11.4804 8.89464 11.2929 8.70711C11.1054 8.51957 11 8.26522 11 8C11 7.73478 11.1054 7.48043 11.2929 7.29289C11.4804 7.10536 11.7348 7 12 7ZM17 11H24C24.6 11 25 11.4 25 12C25 12.6 24.6 13 24 13H17C16.7348 13 16.4804 12.8946 16.2929 12.7071C16.1054 12.5196 16 12.2652 16 12C16 11.7348 16.1054 11.4804 16.2929 11.2929C16.4804 11.1054 16.7348 11 17 11ZM17 15H24C24.6 15 25 15.4 25 16C25 16.6 24.6 17 24 17H17C16.7348 17 16.4804 16.8946 16.2929 16.7071C16.1054 16.5196 16 16.2652 16 16C16 15.7348 16.1054 15.4804 16.2929 15.2929C16.4804 15.1054 16.7348 15 17 15ZM12 19H24C24.2652 19 24.5196 19.1054 24.7071 19.2929C24.8946 19.4804 25 19.7348 25 20C25 20.2652 24.8946 20.5196 24.7071 20.7071C24.5196 20.8946 24.2652 21 24 21H12C11.7348 21 11.4804 20.8946 11.2929 20.7071C11.1054 20.5196 11 20.2652 11 20C11 19.7348 11.1054 19.4804 11.2929 19.2929C11.4804 19.1054 11.7348 19 12 19ZM13.6 15.2C13.8122 15.3591 13.9524 15.596 13.9899 15.8586C14.0275 16.1211 13.9591 16.3878 13.8 16.6C13.6409 16.8122 13.404 16.9524 13.1414 16.9899C12.8789 17.0275 12.6122 16.9591 12.4 16.8L9.4 14.8C9.2758 14.7069 9.175 14.5861 9.10557 14.4472C9.03614 14.3084 9 14.1552 9 14C9 13.8448 9.03614 13.6916 9.10557 13.5528C9.175 13.4139 9.2758 13.2931 9.4 13.2L12.4 11.2C12.6122 11.0409 12.8789 10.9725 13.1414 11.0101C13.404 11.0476 13.6409 11.1878 13.8 11.4C13.9591 11.6122 14.0275 11.8789 13.9899 12.1414C13.9524 12.404 13.8122 12.6409 13.6 12.8L11.8 14L13.6 15.2Z" fill="#222F3E" fill-opacity="0.5"/>
</svg>
