<svg width="34" height="28" viewBox="0 0 34 28" fill="none" xmlns="http://www.w3.org/2000/svg">
<path fill-rule="evenodd" clip-rule="evenodd" d="M12.8 21C12.5 21 12.3 21 12.2 20.8L12 20.3V7.7C12 7.5 12 7.3 12.2 7.2L12.8 7H17.8C19.3 7 20.5 7.3 21.3 8C22 8.6 22.4 9.4 22.4 10.5C22.4223 11.1832 22.2106 11.8535 21.8 12.4C21.4 13 20.8 13.4 20.2 13.6C20.6 13.7 21.1 13.9 21.5 14.2C21.9 14.5 22.3 14.9 22.5 15.4C22.9 15.8 23 16.4 23 17C23 18.3 22.6 19.3 21.7 20C20.9 20.7 19.6 21 17.9 21H12.8ZM17.8 12.7C18.4 12.7 19 12.6 19.4 12.2C19.8 11.9 20 11.5 20 10.9C20 9.8 19.2 9.2 17.7 9.2H14.3V12.7H17.7H17.8ZM18.3 18.7C19 18.7 19.6 18.6 20 18.3C20.4 17.9 20.6 17.4 20.6 16.8C20.6 16.2 20.4 15.8 19.9 15.4C19.5 15.1 18.9 15 17.9 15H14.4V18.8H18.4L18.3 18.7Z" fill="#222F3E"/>
</svg>
