<svg width="34" height="28" viewBox="0 0 34 28" fill="none" xmlns="http://www.w3.org/2000/svg">
<path fill-rule="evenodd" clip-rule="evenodd" d="M12 7H24C24.6 7 25 7.4 25 8C25 8.6 24.6 9 24 9H12C11.7348 9 11.4804 8.89464 11.2929 8.70711C11.1054 8.51957 11 8.26522 11 8C11 7.73478 11.1054 7.48043 11.2929 7.29289C11.4804 7.10536 11.7348 7 12 7ZM17 11H24C24.6 11 25 11.4 25 12C25 12.6 24.6 13 24 13H17C16.7348 13 16.4804 12.8946 16.2929 12.7071C16.1054 12.5196 16 12.2652 16 12C16 11.7348 16.1054 11.4804 16.2929 11.2929C16.4804 11.1054 16.7348 11 17 11ZM17 15H24C24.6 15 25 15.4 25 16C25 16.6 24.6 17 24 17H17C16.7348 17 16.4804 16.8946 16.2929 16.7071C16.1054 16.5196 16 16.2652 16 16C16 15.7348 16.1054 15.4804 16.2929 15.2929C16.4804 15.1054 16.7348 15 17 15ZM12 19H24C24.2652 19 24.5196 19.1054 24.7071 19.2929C24.8946 19.4804 25 19.7348 25 20C25 20.2652 24.8946 20.5196 24.7071 20.7071C24.5196 20.8946 24.2652 21 24 21H12C11.7348 21 11.4804 20.8946 11.2929 20.7071C11.1054 20.5196 11 20.2652 11 20C11 19.7348 11.1054 19.4804 11.2929 19.2929C11.4804 19.1054 11.7348 19 12 19ZM9.4 15.2L11.2 14L9.4 12.8C9.18783 12.6409 9.04756 12.404 9.01005 12.1414C8.97255 11.8789 9.04087 11.6122 9.2 11.4C9.35913 11.1878 9.59603 11.0476 9.85858 11.0101C10.1211 10.9725 10.3878 11.0409 10.6 11.2L13.6 13.2C13.7242 13.2931 13.825 13.4139 13.8944 13.5528C13.9639 13.6916 14 13.8448 14 14C14 14.1552 13.9639 14.3084 13.8944 14.4472C13.825 14.5861 13.7242 14.7069 13.6 14.8L10.6 16.8C10.4949 16.8788 10.3754 16.9361 10.2482 16.9687C10.121 17.0013 9.98858 17.0085 9.85858 16.9899C9.72858 16.9714 9.60351 16.9274 9.49051 16.8605C9.37751 16.7936 9.2788 16.7051 9.2 16.6C9.12121 16.4949 9.06388 16.3754 9.03129 16.2482C8.9987 16.121 8.99148 15.9886 9.01005 15.8586C9.02863 15.7286 9.07262 15.6035 9.13953 15.4905C9.20644 15.3775 9.29495 15.2788 9.4 15.2Z" fill="#222F3E"/>
</svg>
