<svg width="34" height="28" viewBox="0 0 34 28" fill="none" xmlns="http://www.w3.org/2000/svg">
<path d="M15.6562 13.3262V14.3994H10.2695V13.3262H15.6562ZM10.4746 9.04688V19H9.15527V9.04688H10.4746ZM16.8047 9.04688V19H15.4922V9.04688H16.8047ZM25.3428 17.9609V19H18.8281V18.0908L22.0889 14.4609C22.4899 14.0143 22.7998 13.6361 23.0186 13.3262C23.2419 13.0117 23.3968 12.7314 23.4834 12.4854C23.5745 12.2347 23.6201 11.9795 23.6201 11.7197C23.6201 11.3916 23.5518 11.0954 23.415 10.8311C23.2829 10.5622 23.0869 10.348 22.8271 10.1885C22.5674 10.029 22.2529 9.94922 21.8838 9.94922C21.4417 9.94922 21.0726 10.0358 20.7764 10.209C20.4847 10.3776 20.266 10.6146 20.1201 10.9199C19.9743 11.2253 19.9014 11.5762 19.9014 11.9727H18.6367C18.6367 11.4121 18.7598 10.8994 19.0059 10.4346C19.252 9.96973 19.6165 9.60059 20.0996 9.32715C20.5827 9.04915 21.1774 8.91016 21.8838 8.91016C22.5127 8.91016 23.0505 9.02181 23.4971 9.24512C23.9437 9.46387 24.2855 9.77376 24.5225 10.1748C24.764 10.5713 24.8848 11.0361 24.8848 11.5693C24.8848 11.861 24.8346 12.1572 24.7344 12.458C24.6387 12.7542 24.5042 13.0505 24.3311 13.3467C24.1624 13.6429 23.9642 13.9346 23.7363 14.2217C23.513 14.5088 23.2738 14.7913 23.0186 15.0693L20.3525 17.9609H25.3428Z" fill="#222F3E"/>
</svg>
