<svg width="34" height="28" viewBox="0 0 34 28" fill="none" xmlns="http://www.w3.org/2000/svg">
<path d="M22.5999 11.9984H16.9999C14.1999 11.9984 12.5999 13.3984 12.0999 15.4984C11.6999 17.4984 12.3999 19.4984 13.4999 20.0984C13.7386 20.231 13.9149 20.453 13.9899 20.7156C14.0649 20.9781 14.0325 21.2597 13.8999 21.4984C13.7673 21.7371 13.5453 21.9134 13.2828 21.9884C13.0202 22.0634 12.7386 22.031 12.4999 21.8984C10.4999 20.6984 9.59994 17.7984 10.1999 15.0984C10.7999 12.0984 13.1999 9.99844 16.9999 9.99844H22.5999L19.2999 6.69844C19.1853 6.61247 19.0905 6.50289 19.0219 6.37709C18.9534 6.2513 18.9126 6.11224 18.9025 5.96933C18.8923 5.82641 18.913 5.68299 18.9631 5.54876C19.0132 5.41453 19.0915 5.29264 19.1928 5.19133C19.2941 5.09002 19.416 5.01167 19.5503 4.96157C19.6845 4.91147 19.8279 4.8908 19.9708 4.90095C20.1137 4.91111 20.2528 4.95186 20.3786 5.02043C20.5044 5.08901 20.614 5.18382 20.6999 5.29844L25.6999 10.2984C25.8832 10.4854 25.9858 10.7367 25.9858 10.9984C25.9858 11.2602 25.8832 11.5115 25.6999 11.6984L20.6999 16.6984C20.5074 16.8429 20.2692 16.913 20.029 16.8959C19.7889 16.8789 19.563 16.7758 19.3928 16.6055C19.2226 16.4353 19.1195 16.2094 19.1025 15.9693C19.0854 15.7292 19.1555 15.491 19.2999 15.2984L22.5999 11.9984Z" fill="#222F3E" fill-opacity="0.5"/>
</svg>
