<svg width="34" height="28" viewBox="0 0 34 28" fill="none" xmlns="http://www.w3.org/2000/svg">
<path d="M11.3995 10.0016H16.9995C20.6995 10.0016 23.1995 12.0016 23.7995 15.1016C24.3995 17.8016 23.3995 20.7016 21.4995 21.9016C21.3813 21.9672 21.2514 22.009 21.1171 22.0244C20.9827 22.0398 20.8467 22.0287 20.7167 21.9915C20.5867 21.9544 20.4653 21.892 20.3594 21.8079C20.2535 21.7239 20.1652 21.6198 20.0995 21.5016C20.0339 21.3834 19.9921 21.2534 19.9767 21.1191C19.9613 20.9848 19.9724 20.8487 20.0096 20.7187C20.0467 20.5887 20.1091 20.4673 20.1932 20.3614C20.2772 20.2555 20.3813 20.1672 20.4995 20.1016C21.5995 19.5016 22.2995 17.4016 21.8995 15.5016C21.3995 13.4016 19.7995 12.0016 16.9995 12.0016H11.3995L14.6995 15.3016C14.8141 15.3875 14.909 15.4971 14.9775 15.6229C15.0461 15.7487 15.0869 15.8878 15.097 16.0307C15.1072 16.1736 15.0865 16.317 15.0364 16.4512C14.9863 16.5855 14.9079 16.7074 14.8066 16.8087C14.7053 16.91 14.5834 16.9883 14.4492 17.0384C14.315 17.0885 14.1716 17.1092 14.0286 17.099C13.8857 17.0889 13.7467 17.0481 13.6209 16.9796C13.4951 16.911 13.3855 16.8162 13.2995 16.7016L8.29953 11.7016C8.1163 11.5146 8.01367 11.2633 8.01367 11.0016C8.01367 10.7398 8.1163 10.4885 8.29953 10.3016L13.2995 5.30156C13.4921 5.15713 13.7303 5.08702 13.9704 5.10408C14.2105 5.12114 14.4364 5.22425 14.6066 5.39446C14.7768 5.56467 14.8799 5.79057 14.897 6.03067C14.9141 6.27078 14.844 6.50899 14.6995 6.70156L11.3995 10.0016Z" fill="#222F3E" fill-opacity="0.5"/>
</svg>
