<svg width="34" height="28" viewBox="0 0 34 28" fill="none" xmlns="http://www.w3.org/2000/svg">
<path fill-rule="evenodd" clip-rule="evenodd" d="M16 7H24C24.6 7 25 7.4 25 8C25 8.6 24.6 9 24 9H16C15.7348 9 15.4804 8.89464 15.2929 8.70711C15.1054 8.51957 15 8.26522 15 8C15 7.73478 15.1054 7.48043 15.2929 7.29289C15.4804 7.10536 15.7348 7 16 7ZM16 13H24C24.6 13 25 13.4 25 14C25 14.6 24.6 15 24 15H16C15.7348 15 15.4804 14.8946 15.2929 14.7071C15.1054 14.5196 15 14.2652 15 14C15 13.7348 15.1054 13.4804 15.2929 13.2929C15.4804 13.1054 15.7348 13 16 13ZM16 19H24C24.6 19 25 19.4 25 20C25 20.6 24.6 21 24 21H16C15.7348 21 15.4804 20.8946 15.2929 20.7071C15.1054 20.5196 15 20.2652 15 20C15 19.7348 15.1054 19.4804 15.2929 19.2929C15.4804 19.1054 15.7348 19 16 19ZM9.5 8C9.5 7.6 9.6 7.2 9.9 7C10.2 6.6 10.6 6.5 11 6.5C11.4 6.5 11.8 6.6 12 6.9C12.4 7.2 12.5 7.6 12.5 8C12.5 8.4 12.4 8.8 12.1 9C11.8 9.4 11.4 9.5 11 9.5C10.6 9.5 10.2 9.4 10 9.1C9.6 8.8 9.5 8.4 9.5 8ZM9.5 14C9.5 13.6 9.6 13.2 9.9 13C10.2 12.6 10.6 12.5 11 12.5C11.4 12.5 11.8 12.6 12 12.9C12.4 13.2 12.5 13.6 12.5 14C12.5 14.4 12.4 14.8 12.1 15C11.8 15.4 11.4 15.5 11 15.5C10.6 15.5 10.2 15.4 10 15.1C9.6 14.8 9.5 14.4 9.5 14ZM9.5 20C9.5 19.6 9.6 19.2 9.9 19C10.2 18.6 10.6 18.5 11 18.5C11.4 18.5 11.8 18.6 12 18.9C12.4 19.2 12.5 19.6 12.5 20C12.5 20.4 12.4 20.8 12.1 21C11.8 21.4 11.4 21.5 11 21.5C10.6 21.5 10.2 21.4 10 21.1C9.6 20.8 9.5 20.4 9.5 20Z" fill="#222F3E"/>
</svg>
