<svg width="34" height="28" viewBox="0 0 34 28" fill="none" xmlns="http://www.w3.org/2000/svg">
<path fill-rule="evenodd" clip-rule="evenodd" d="M15 19H23C23.6 19 24 19.4 24 20C24 20.6 23.6 21 23 21H15C14.7348 21 14.4804 20.8946 14.2929 20.7071C14.1054 20.5196 14 20.2652 14 20C14 19.7348 14.1054 19.4804 14.2929 19.2929C14.4804 19.1054 14.7348 19 15 19ZM15 13H23C23.6 13 24 13.4 24 14C24 14.6 23.6 15 23 15H15C14.7348 15 14.4804 14.8946 14.2929 14.7071C14.1054 14.5196 14 14.2652 14 14C14 13.7348 14.1054 13.4804 14.2929 13.2929C14.4804 13.1054 14.7348 13 15 13ZM15 7H23C23.6 7 24 7.4 24 8C24 8.6 23.6 9 23 9H15C14.7348 9 14.4804 8.89464 14.2929 8.70711C14.1054 8.51957 14 8.26522 14 8C14 7.73478 14.1054 7.48043 14.2929 7.29289C14.4804 7.10536 14.7348 7 15 7ZM11 6V9.5C11 9.8 10.8 10 10.5 10C10.3674 10 10.2402 9.94732 10.1465 9.85355C10.0527 9.75979 10 9.63261 10 9.5V7H9.50001C9.3674 7 9.24023 6.94732 9.14646 6.85355C9.05269 6.75979 9.00001 6.63261 9.00001 6.5C9.00001 6.36739 9.05269 6.24021 9.14646 6.14645C9.24023 6.05268 9.3674 6 9.50001 6H11ZM10 14.8L10.2 15H11.5C11.8 15 12 15.2 12 15.5C12 15.8 11.8 16 11.5 16H9.90001C9.65249 15.9751 9.42312 15.8589 9.25671 15.674C9.09029 15.4891 8.99877 15.2488 9.00001 15C9.00001 14.6 9.30001 14.2 9.60001 14L10.8 13.6L11 13.3C11 13.247 10.9789 13.1961 10.9414 13.1586C10.9039 13.1211 10.8531 13.1 10.8 13.1H9.50001C9.3674 13.1 9.24023 13.0473 9.14646 12.9536C9.05269 12.8598 9.00001 12.7326 9.00001 12.6C9.00001 12.3 9.20001 12.1 9.50001 12.1H11.1C11.6 12.1 12 12.5 12 13.1V13.2C12 13.6 11.7 14 11.4 14.2L10.2 14.6L10 14.9V14.8ZM12 19V21C12 21.6 11.6 22 11 22H9.50001C9.3674 22 9.24023 21.9473 9.14646 21.8536C9.05269 21.7598 9.00001 21.6326 9.00001 21.5C9.00001 21.3674 9.05269 21.2402 9.14646 21.1464C9.24023 21.0527 9.3674 21 9.50001 21H10.7C10.9 21 11 20.9 11 20.7C11 20.5 10.9 20.4 10.7 20.4H9.40001C9.29393 20.4 9.19218 20.3579 9.11717 20.2828C9.04216 20.2078 9.00001 20.1061 9.00001 20C9.00001 19.8939 9.04216 19.7922 9.11717 19.7172C9.19218 19.6421 9.29393 19.6 9.40001 19.6H10.7C10.9 19.6 11 19.5 11 19.3C11 19.1 10.9 19 10.7 19H9.50001C9.3674 19 9.24023 18.9473 9.14646 18.8536C9.05269 18.7598 9.00001 18.6326 9.00001 18.5C9.00001 18.3674 9.05269 18.2402 9.14646 18.1464C9.24023 18.0527 9.3674 18 9.50001 18H11C11.6 18 12 18.4 12 19Z" fill="#222F3E"/>
</svg>
