<svg width="12" height="12" viewBox="0 0 12 12" fill="none" xmlns="http://www.w3.org/2000/svg">
<g clip-path="url(#clip0_281_3671)">
<path d="M10.8341 1.78492C10.4539 1.40471 10.0118 1.10913 9.51663 0.908287C9.03916 0.715024 8.53516 0.615234 8.01726 0.615234C7.50063 0.615234 6.99537 0.712498 6.51789 0.904498C6.024 1.10408 5.58063 1.39587 5.20042 1.77355L0.923368 6.04176C0.622737 6.33987 0.390316 6.68723 0.231158 7.07629C0.0783158 7.45144 0 7.84808 0 8.25608C0 8.66155 0.0770526 9.05692 0.228632 9.43208C0.385263 9.81987 0.616421 10.1672 0.914526 10.4666C1.21263 10.766 1.56126 10.9971 1.94905 11.155C2.32421 11.3079 2.72084 11.3849 3.12758 11.3849C3.53432 11.3849 3.93095 11.3079 4.30611 11.1563C4.69516 10.9984 5.04378 10.7672 5.34316 10.4691L8.74233 7.08385C8.96086 6.86659 9.12885 6.6127 9.24379 6.32975C9.35496 6.05691 9.41053 5.76764 9.41053 5.47208C9.41053 4.86323 9.17305 4.29481 8.74233 3.86787C8.31285 3.43587 7.74191 3.19713 7.13432 3.1946C6.52549 3.19334 5.95326 3.42955 5.52253 3.86029L3.40547 5.9786C3.29811 6.08597 3.24 6.22744 3.24 6.37777C3.24 6.52808 3.29811 6.67081 3.40547 6.77693L3.41432 6.78577C3.63411 7.00683 3.99284 7.00683 4.21389 6.78704L6.336 4.67125C6.77937 4.23167 7.49937 4.22914 7.94272 4.66621C8.1562 4.87842 8.27242 5.16263 8.27242 5.46704C8.27242 5.77398 8.15368 6.062 7.93768 6.27673L4.53979 9.662C4.53347 9.66831 4.52842 9.67335 4.52463 9.68094C4.14947 10.046 3.65432 10.2456 3.12884 10.243C2.59958 10.2405 2.10316 10.0346 1.73179 9.662C1.54611 9.47252 1.40211 9.25147 1.30232 9.00515C1.20632 8.76639 1.15832 8.51376 1.15832 8.25608C1.15832 7.72808 1.36168 7.23419 1.73179 6.86281C1.73684 6.85902 1.74063 6.85523 1.74568 6.85146L6.0139 2.58451C6.01768 2.58072 6.02147 2.57567 6.02525 2.57062C6.29557 2.30535 6.61009 2.09819 6.95999 1.95798C7.30104 1.82156 7.65978 1.75335 8.02863 1.75335C8.39746 1.75335 8.75746 1.82409 9.09726 1.96051C9.44969 2.10325 9.76547 2.31167 10.0358 2.58072C10.3061 2.85104 10.5145 3.16683 10.6573 3.51925C10.7949 3.85904 10.8644 4.21904 10.8644 4.58788C10.8644 4.95798 10.7949 5.31925 10.656 5.66156C10.5133 6.01525 10.3023 6.33356 10.0307 6.6064L7.08126 9.54704C6.97389 9.6544 6.91453 9.79588 6.91453 9.94746C6.91453 10.099 6.9739 10.2405 7.08 10.3466L7.08632 10.3529C7.30611 10.5727 7.66484 10.5727 7.88463 10.3529L10.8316 7.41355C11.2118 7.03334 11.5074 6.58997 11.7082 6.09608C11.9027 5.6186 12 5.1146 12 4.59671C12 4.08008 11.9015 3.57608 11.7082 3.09987C11.5086 2.60597 11.2143 2.16387 10.8341 1.78492Z" fill="black"/>
</g>
<defs>
<clipPath id="clip0_281_3671">
<rect width="12" height="12" fill="white"/>
</clipPath>
</defs>
</svg>
